<mxfile host="Electron" modified="2024-04-14T01:06:13.347Z" agent="Mozilla/5.0 (Windows NT 10.0; Win64; x64) AppleWebKit/537.36 (KHTML, like Gecko) draw.io/24.1.0 Chrome/120.0.6099.109 Electron/28.1.0 Safari/537.36" etag="A_skzisSBlhaD9bNN9KH" version="24.1.0" type="device">
  <diagram name="Page-1" id="g5ePiKyQv5tS8b8JQHV4">
    <mxGraphModel dx="1050" dy="621" grid="1" gridSize="10" guides="1" tooltips="1" connect="1" arrows="1" fold="1" page="1" pageScale="1" pageWidth="827" pageHeight="1169" math="0" shadow="0">
      <root>
        <mxCell id="0" />
        <mxCell id="1" parent="0" />
        <mxCell id="IBbvPS3diP8eXaxW1Nwz-1" value="" style="ellipse;html=1;" vertex="1" parent="1">
          <mxGeometry x="380" y="70" width="30" height="30" as="geometry" />
        </mxCell>
        <mxCell id="IBbvPS3diP8eXaxW1Nwz-2" value="" style="endArrow=open;html=1;rounded=0;align=center;verticalAlign=top;endFill=0;labelBackgroundColor=none;endSize=6;entryX=0.5;entryY=0;entryDx=0;entryDy=0;" edge="1" parent="1" source="IBbvPS3diP8eXaxW1Nwz-1" target="IBbvPS3diP8eXaxW1Nwz-4">
          <mxGeometry relative="1" as="geometry">
            <mxPoint x="395" y="160" as="targetPoint" />
          </mxGeometry>
        </mxCell>
        <mxCell id="IBbvPS3diP8eXaxW1Nwz-3" style="edgeStyle=orthogonalEdgeStyle;rounded=0;orthogonalLoop=1;jettySize=auto;html=1;exitX=0.5;exitY=1;exitDx=0;exitDy=0;entryX=0.5;entryY=0;entryDx=0;entryDy=0;" edge="1" parent="1" source="IBbvPS3diP8eXaxW1Nwz-4" target="IBbvPS3diP8eXaxW1Nwz-6">
          <mxGeometry relative="1" as="geometry">
            <mxPoint x="395" y="300" as="targetPoint" />
          </mxGeometry>
        </mxCell>
        <mxCell id="IBbvPS3diP8eXaxW1Nwz-4" value="Administrator odabire aktivnosti koju želi izmijeniti&amp;nbsp;" style="rounded=1;whiteSpace=wrap;html=1;" vertex="1" parent="1">
          <mxGeometry x="327.5" y="170" width="135" height="60" as="geometry" />
        </mxCell>
        <mxCell id="IBbvPS3diP8eXaxW1Nwz-5" style="edgeStyle=orthogonalEdgeStyle;rounded=0;orthogonalLoop=1;jettySize=auto;html=1;exitX=0.5;exitY=1;exitDx=0;exitDy=0;entryX=0.5;entryY=0;entryDx=0;entryDy=0;" edge="1" parent="1" source="IBbvPS3diP8eXaxW1Nwz-6" target="IBbvPS3diP8eXaxW1Nwz-7">
          <mxGeometry relative="1" as="geometry" />
        </mxCell>
        <mxCell id="IBbvPS3diP8eXaxW1Nwz-6" value="Prikaz podataka o aktivnosti" style="rounded=1;whiteSpace=wrap;html=1;" vertex="1" parent="1">
          <mxGeometry x="327.5" y="300" width="135" height="60" as="geometry" />
        </mxCell>
        <mxCell id="IBbvPS3diP8eXaxW1Nwz-7" value="Izmjena željenih podataka" style="rounded=1;whiteSpace=wrap;html=1;" vertex="1" parent="1">
          <mxGeometry x="327.5" y="430" width="135" height="60" as="geometry" />
        </mxCell>
        <mxCell id="IBbvPS3diP8eXaxW1Nwz-8" style="edgeStyle=orthogonalEdgeStyle;rounded=0;orthogonalLoop=1;jettySize=auto;html=1;exitX=0.5;exitY=1;exitDx=0;exitDy=0;entryX=0.5;entryY=0;entryDx=0;entryDy=0;" edge="1" parent="1" source="IBbvPS3diP8eXaxW1Nwz-7" target="IBbvPS3diP8eXaxW1Nwz-10">
          <mxGeometry relative="1" as="geometry">
            <mxPoint x="395" y="620" as="sourcePoint" />
          </mxGeometry>
        </mxCell>
        <mxCell id="IBbvPS3diP8eXaxW1Nwz-9" style="edgeStyle=orthogonalEdgeStyle;rounded=0;orthogonalLoop=1;jettySize=auto;html=1;exitX=0.5;exitY=1;exitDx=0;exitDy=0;entryX=0.5;entryY=0;entryDx=0;entryDy=0;" edge="1" parent="1" source="IBbvPS3diP8eXaxW1Nwz-10" target="IBbvPS3diP8eXaxW1Nwz-14">
          <mxGeometry relative="1" as="geometry" />
        </mxCell>
        <mxCell id="IBbvPS3diP8eXaxW1Nwz-10" value="Potvrda izmjene podataka" style="rounded=1;whiteSpace=wrap;html=1;" vertex="1" parent="1">
          <mxGeometry x="327.5" y="600" width="135" height="60" as="geometry" />
        </mxCell>
        <mxCell id="IBbvPS3diP8eXaxW1Nwz-11" style="edgeStyle=orthogonalEdgeStyle;rounded=0;orthogonalLoop=1;jettySize=auto;html=1;exitX=1;exitY=0.5;exitDx=0;exitDy=0;entryX=0.5;entryY=0;entryDx=0;entryDy=0;" edge="1" parent="1" source="IBbvPS3diP8eXaxW1Nwz-14" target="IBbvPS3diP8eXaxW1Nwz-27">
          <mxGeometry relative="1" as="geometry">
            <mxPoint x="610" y="860" as="targetPoint" />
          </mxGeometry>
        </mxCell>
        <mxCell id="IBbvPS3diP8eXaxW1Nwz-12" value="Ne" style="edgeLabel;html=1;align=center;verticalAlign=middle;resizable=0;points=[];" vertex="1" connectable="0" parent="IBbvPS3diP8eXaxW1Nwz-11">
          <mxGeometry x="-0.2053" y="-1" relative="1" as="geometry">
            <mxPoint as="offset" />
          </mxGeometry>
        </mxCell>
        <mxCell id="IBbvPS3diP8eXaxW1Nwz-13" style="edgeStyle=orthogonalEdgeStyle;rounded=0;orthogonalLoop=1;jettySize=auto;html=1;exitX=0.5;exitY=1;exitDx=0;exitDy=0;" edge="1" parent="1" source="IBbvPS3diP8eXaxW1Nwz-14" target="IBbvPS3diP8eXaxW1Nwz-18">
          <mxGeometry relative="1" as="geometry" />
        </mxCell>
        <mxCell id="IBbvPS3diP8eXaxW1Nwz-14" value="Potvrda izmjene?" style="rhombus;whiteSpace=wrap;html=1;" vertex="1" parent="1">
          <mxGeometry x="362.5" y="730" width="65" height="60" as="geometry" />
        </mxCell>
        <mxCell id="IBbvPS3diP8eXaxW1Nwz-15" style="edgeStyle=orthogonalEdgeStyle;rounded=0;orthogonalLoop=1;jettySize=auto;html=1;exitX=0.5;exitY=1;exitDx=0;exitDy=0;exitPerimeter=0;" edge="1" parent="1" source="IBbvPS3diP8eXaxW1Nwz-27" target="IBbvPS3diP8eXaxW1Nwz-16">
          <mxGeometry relative="1" as="geometry">
            <Array as="points">
              <mxPoint x="610" y="1405" />
            </Array>
            <mxPoint x="610" y="920" as="sourcePoint" />
          </mxGeometry>
        </mxCell>
        <mxCell id="IBbvPS3diP8eXaxW1Nwz-16" value="" style="ellipse;html=1;shape=endState;fillColor=strokeColor;" vertex="1" parent="1">
          <mxGeometry x="380" y="1390" width="30" height="30" as="geometry" />
        </mxCell>
        <mxCell id="IBbvPS3diP8eXaxW1Nwz-17" style="edgeStyle=orthogonalEdgeStyle;rounded=0;orthogonalLoop=1;jettySize=auto;html=1;exitX=0.5;exitY=1;exitDx=0;exitDy=0;" edge="1" parent="1" source="IBbvPS3diP8eXaxW1Nwz-18" target="IBbvPS3diP8eXaxW1Nwz-22">
          <mxGeometry relative="1" as="geometry" />
        </mxCell>
        <mxCell id="IBbvPS3diP8eXaxW1Nwz-18" value="Provjera ispravnosti unesenih podataka" style="rounded=1;whiteSpace=wrap;html=1;" vertex="1" parent="1">
          <mxGeometry x="327.5" y="860" width="135" height="60" as="geometry" />
        </mxCell>
        <mxCell id="IBbvPS3diP8eXaxW1Nwz-19" style="edgeStyle=orthogonalEdgeStyle;rounded=0;orthogonalLoop=1;jettySize=auto;html=1;exitX=0;exitY=0.5;exitDx=0;exitDy=0;entryX=0;entryY=0.5;entryDx=0;entryDy=0;" edge="1" parent="1" source="IBbvPS3diP8eXaxW1Nwz-22" target="IBbvPS3diP8eXaxW1Nwz-6">
          <mxGeometry relative="1" as="geometry">
            <Array as="points">
              <mxPoint x="308" y="1030" />
              <mxPoint x="308" y="330" />
            </Array>
          </mxGeometry>
        </mxCell>
        <mxCell id="IBbvPS3diP8eXaxW1Nwz-20" value="Ne" style="edgeLabel;html=1;align=center;verticalAlign=middle;resizable=0;points=[];" vertex="1" connectable="0" parent="IBbvPS3diP8eXaxW1Nwz-19">
          <mxGeometry x="-0.1771" y="3" relative="1" as="geometry">
            <mxPoint as="offset" />
          </mxGeometry>
        </mxCell>
        <mxCell id="IBbvPS3diP8eXaxW1Nwz-21" style="edgeStyle=orthogonalEdgeStyle;rounded=0;orthogonalLoop=1;jettySize=auto;html=1;exitX=0.5;exitY=1;exitDx=0;exitDy=0;entryX=0.5;entryY=0;entryDx=0;entryDy=0;" edge="1" parent="1" source="IBbvPS3diP8eXaxW1Nwz-22" target="IBbvPS3diP8eXaxW1Nwz-24">
          <mxGeometry relative="1" as="geometry" />
        </mxCell>
        <mxCell id="IBbvPS3diP8eXaxW1Nwz-22" value="Potvrda ispravnosti?" style="rhombus;whiteSpace=wrap;html=1;" vertex="1" parent="1">
          <mxGeometry x="362.5" y="1000" width="65" height="60" as="geometry" />
        </mxCell>
        <mxCell id="IBbvPS3diP8eXaxW1Nwz-23" style="edgeStyle=orthogonalEdgeStyle;rounded=0;orthogonalLoop=1;jettySize=auto;html=1;exitX=0.5;exitY=1;exitDx=0;exitDy=0;entryX=0.5;entryY=0;entryDx=0;entryDy=0;" edge="1" parent="1" source="IBbvPS3diP8eXaxW1Nwz-24" target="IBbvPS3diP8eXaxW1Nwz-26">
          <mxGeometry relative="1" as="geometry" />
        </mxCell>
        <mxCell id="IBbvPS3diP8eXaxW1Nwz-24" value="Spremanje promjena u bazu podataka" style="rounded=1;whiteSpace=wrap;html=1;" vertex="1" parent="1">
          <mxGeometry x="327.5" y="1130" width="135" height="60" as="geometry" />
        </mxCell>
        <mxCell id="IBbvPS3diP8eXaxW1Nwz-25" style="edgeStyle=orthogonalEdgeStyle;rounded=0;orthogonalLoop=1;jettySize=auto;html=1;exitX=0.5;exitY=1;exitDx=0;exitDy=0;entryX=0.5;entryY=0;entryDx=0;entryDy=0;" edge="1" parent="1" source="IBbvPS3diP8eXaxW1Nwz-26" target="IBbvPS3diP8eXaxW1Nwz-16">
          <mxGeometry relative="1" as="geometry" />
        </mxCell>
        <mxCell id="IBbvPS3diP8eXaxW1Nwz-26" value="Sustav prikazuje poruku o uspješnom ažuriranju aktivnosti" style="rounded=1;whiteSpace=wrap;html=1;" vertex="1" parent="1">
          <mxGeometry x="327.5" y="1260" width="135" height="60" as="geometry" />
        </mxCell>
        <mxCell id="IBbvPS3diP8eXaxW1Nwz-27" value="Povratak na listu članova" style="rounded=1;whiteSpace=wrap;html=1;" vertex="1" parent="1">
          <mxGeometry x="550" y="860" width="120" height="60" as="geometry" />
        </mxCell>
      </root>
    </mxGraphModel>
  </diagram>
</mxfile>
